<svg
    width="268.8"
    height="70"
    viewBox="0 0 268.8 70"
    xmlns="http://www.w3.org/2000/svg"
>
    <g
        id="svgGroup"
        stroke-linecap="round"
        fill-rule="evenodd"
        font-size="9pt"
        stroke="#ffffff"
        stroke-width="2"
        fill="none"
        style="stroke: #ffffff; stroke-width: 2; fill: none"
    >
        <path
            d="M 0 70 L 30.6 33.9 L 13.3 0 L 25.8 0 L 38.3 24.7 L 59.3 0 L 72.9 0 L 43.7 34.3 L 61.6 70 L 49.1 70 L 36 43.6 L 13.6 70 L 0 70 Z M 175.1 70 L 167 60.1 L 167.9 54.6 L 179.1 54.6 L 178.5 57.8 L 180.8 60.7 L 197.7 60.7 L 201 57.8 L 201.9 52.4 L 199.6 49.5 L 178.6 49.5 L 170.8 40 L 172.9 28.5 L 182.6 20.2 L 207.9 20.2 L 216 30.2 L 215 35.6 L 203.9 35.6 L 204.4 32.4 L 202.1 29.5 L 186.6 29.5 L 183.3 32.4 L 182.5 37.4 L 184.8 40.3 L 205.6 40.3 L 213.6 49.9 L 211.5 61.6 L 201.7 70 L 175.1 70 Z M 227.9 70 L 219.8 60.1 L 220.7 54.6 L 231.9 54.6 L 231.3 57.8 L 233.6 60.7 L 250.5 60.7 L 253.8 57.8 L 254.7 52.4 L 252.4 49.5 L 231.4 49.5 L 223.6 40 L 225.7 28.5 L 235.4 20.2 L 260.7 20.2 L 268.8 30.2 L 267.8 35.6 L 256.7 35.6 L 257.2 32.4 L 254.9 29.5 L 239.4 29.5 L 236.1 32.4 L 235.3 37.4 L 237.6 40.3 L 258.4 40.3 L 266.4 49.9 L 264.3 61.6 L 254.5 70 L 227.9 70 Z M 69.1 70 L 77.9 20.2 L 88.4 20.2 L 86.9 28.7 L 96.7 20.2 L 110.5 20.2 L 108.8 29.9 L 97.7 29.9 L 85.5 40.4 L 80.4 70 L 69.1 70 Z M 118.8 70 L 110.1 59.4 L 115.4 29.4 L 126.1 20.2 L 153.8 20.2 L 162.6 30.9 L 157.3 61 L 146.8 70 L 118.8 70 Z M 125.2 60.5 L 121.9 56.5 L 125.9 33.7 L 130.6 29.7 L 147.5 29.7 L 150.8 33.7 L 146.8 56.5 L 142.1 60.5 L 125.2 60.5 Z"
            vector-effect="non-scaling-stroke"
        />
    </g>
</svg>
